HIERARCHY
ROOT Hips
{
 OFFSET 0.000000 0.000000 0.000000
 CHANNELS 6 Xposition Yposition Zposition Yrotation Xrotation Zrotation
 JOINT Chest
 {
  OFFSET 0.000000 9.588913 -0.003946
  CHANNELS 3 Yrotation Xrotation Zrotation
  JOINT Chest2
  {
   OFFSET 0.000000 9.541882 0.008053
   CHANNELS 3 Yrotation Xrotation Zrotation
   JOINT Chest3
   {
    OFFSET 0.000000 9.501360 0.000000
    CHANNELS 3 Yrotation Xrotation Zrotation
    JOINT Chest4
    {
     OFFSET 0.000000 9.491660 0.000000
     CHANNELS 3 Yrotation Xrotation Zrotation
     JOINT Neck
     {
      OFFSET 0.000000 14.331917 0.000000
      CHANNELS 3 Yrotation Xrotation Zrotation
      JOINT Head
      {
       OFFSET 0.000000 8.884799 0.017034
       CHANNELS 3 Yrotation Xrotation Zrotation
       End Site
       {
        OFFSET 0.000000 16.896195 0.008993
       }
      }
     }
     JOINT RightCollar
     {
      OFFSET -2.923010 9.499495 0.000000
      CHANNELS 3 Yrotation Xrotation Zrotation
      JOINT RightShoulder
      {
       OFFSET -13.795216 0.000000 0.000000
       CHANNELS 3 Yrotation Xrotation Zrotation
       JOINT RightElbow
       {
        OFFSET -30.272209 0.000000 0.000000
        CHANNELS 3 Yrotation Xrotation Zrotation
        JOINT RightWrist
        {
         OFFSET -24.478199 0.000000 0.000000
         CHANNELS 3 Yrotation Xrotation Zrotation
         End Site
         {
          OFFSET -18.090752 0.000000 0.000000
         }
        }
       }
      }
     }
     JOINT LeftCollar
     {
      OFFSET 2.923010 9.499495 0.000000
      CHANNELS 3 Yrotation Xrotation Zrotation
      JOINT LeftShoulder
      {
       OFFSET 13.795216 0.000000 0.000000
       CHANNELS 3 Yrotation Xrotation Zrotation
       JOINT LeftElbow
       {
        OFFSET 30.272209 0.000000 0.000000
        CHANNELS 3 Yrotation Xrotation Zrotation
        JOINT LeftWrist
        {
         OFFSET 24.478199 0.000000 0.000000
         CHANNELS 3 Yrotation Xrotation Zrotation
         End Site
         {
          OFFSET 18.090752 0.000000 0.000000
         }
        }
       }
      }
     }
    }
   }
  }
 }
 JOINT RightHip
 {
  OFFSET -7.826875 0.019532 0.001973
  CHANNELS 3 Yrotation Xrotation Zrotation
  JOINT RightKnee
  {
   OFFSET 0.000000 -40.546152 -0.001885
   CHANNELS 3 Yrotation Xrotation Zrotation
   JOINT RightAnkle
   {
    OFFSET 0.000000 -39.417092 -0.003189
    CHANNELS 3 Yrotation Xrotation Zrotation
    JOINT RightToe
    {
     OFFSET 0.000000 -7.579396 17.243563
     CHANNELS 3 Yrotation Xrotation Zrotation
     End Site
     {
      OFFSET 0.000000 -1.500329 6.694466
     }
    }
   }
  }
 }
 JOINT LeftHip
 {
  OFFSET 7.826875 0.019532 0.001973
  CHANNELS 3 Yrotation Xrotation Zrotation
  JOINT LeftKnee
  {
   OFFSET 0.000000 -40.546152 -0.001885
   CHANNELS 3 Yrotation Xrotation Zrotation
   JOINT LeftAnkle
   {
    OFFSET 0.000000 -39.417092 -0.003189
    CHANNELS 3 Yrotation Xrotation Zrotation
    JOINT LeftToe
    {
     OFFSET 0.000000 -7.579396 17.243563
     CHANNELS 3 Yrotation Xrotation Zrotation
     End Site
     {
      OFFSET 0.000000 -1.500329 6.694466
     }
    }
   }
  }
 }
}
MOTION
Frames: 11
Frame Time: 0.008333
3.067686 89.161036 8.486296 34.772589 -9.597301 0.805949 -2.037663 2.255870 -2.821561 -1.145173 1.301641 -1.596183 -1.437192 1.622006 -1.999398 -1.145175 1.301641 -1.596185 0.962595 21.155533 -0.556551 1.904221 3.507058 -1.283512 11.417828 -4.110782 -4.113079 1.290290 -43.232747 75.760162 63.077073 -24.095878 21.667059 11.658194 -12.564468 -19.654853 -0.301812 -5.221899 6.444403 5.376674 -43.317936 -86.010608 -47.116657 -23.174604 -44.133102 -12.412817 -13.513357 18.479527 -13.855249 9.704976 -0.762563 -5.613516 7.581686 -0.631118 -25.188023 -7.421962 2.691949 0.041604 0.035072 0.014767 -16.198283 9.142877 -3.641314 -19.492386 6.123361 -0.361901 -20.578393 -5.135394 1.784482 -0.024187 -0.013908 -0.025619
3.093610 89.157591 8.528202 34.750745 -9.602873 0.798758 -2.038522 2.183739 -2.832867 -1.146230 1.258558 -1.599007 -1.438329 1.568142 -2.002789 -1.146232 1.258559 -1.599009 0.992058 21.253894 -0.548737 1.954001 3.690104 -1.276043 11.403778 -4.078248 -4.025136 1.222817 -43.100203 75.801449 63.245126 -24.086109 21.772452 11.667886 -12.556148 -19.662340 -0.246055 -5.194594 6.410999 5.442460 -43.117315 -86.020037 -47.265943 -23.196439 -44.203936 -12.435557 -13.494370 18.471030 -13.826061 9.745577 -0.741234 -5.620611 7.575608 -0.638468 -25.225934 -7.445470 2.708675 0.035508 0.034127 0.014430 -16.202223 9.196205 -3.651659 -19.483457 6.097960 -0.340514 -20.605260 -5.145941 1.804650 -0.026907 -0.008158 -0.027126
3.121064 89.154589 8.569168 34.731723 -9.609425 0.790197 -2.040238 2.111134 -2.841810 -1.148149 1.216686 -1.601688 -1.440549 1.515787 -2.006008 -1.148151 1.216687 -1.601690 1.021354 21.349421 -0.541014 2.003532 3.867889 -1.268680 11.391512 -4.045367 -3.939179 1.166769 -42.965363 75.833722 63.417612 -24.081751 21.867970 11.675818 -12.550446 -19.669803 -0.186661 -5.164806 6.380009 5.493422 -42.914562 -86.019418 -47.425948 -23.219641 -44.262522 -12.460423 -13.473509 18.468101 -13.799119 9.793530 -0.727998 -5.629152 7.565848 -0.646392 -25.220173 -7.466971 2.725736 0.033781 0.031932 0.016763 -16.215660 9.249253 -3.664592 -19.473963 6.075802 -0.323250 -20.612703 -5.155862 1.827122 -0.028395 -0.003386 -0.027031
3.148564 89.151864 8.608731 34.717086 -9.609682 0.775128 -2.041866 2.034193 -2.846309 -1.150101 1.174759 -1.603792 -1.442807 1.463364 -2.008506 -1.150103 1.174759 -1.603794 1.048735 21.443355 -0.531935 2.049222 4.042650 -1.258293 11.376063 -4.011626 -3.853092 1.119019 -42.831125 75.859660 63.590112 -24.082205 21.953955 11.682250 -12.546368 -19.673484 -0.130318 -5.131135 6.350357 5.543127 -42.716791 -86.012289 -47.583900 -23.240461 -44.321615 -12.486902 -13.448375 18.465923 -13.776462 9.846138 -0.719756 -5.636934 7.548093 -0.652226 -25.156511 -7.484526 2.740839 0.038216 0.027811 0.022134 -16.235245 9.302427 -3.676370 -19.463149 6.053270 -0.310558 -20.568044 -5.167237 1.853327 -0.025254 0.002375 -0.024305
3.176920 89.149528 8.646863 34.708692 -9.606109 0.758710 -2.044148 1.955875 -2.850195 -1.152399 1.131967 -1.606150 -1.445493 1.409858 -2.011318 -1.152401 1.131967 -1.606152 1.074490 21.537272 -0.521032 2.091450 4.217309 -1.244096 11.354487 -3.975318 -3.765066 1.070055 -42.698630 75.886868 63.757765 -24.085074 22.039311 11.687400 -12.542118 -19.672540 -0.079384 -5.090915 6.322135 5.594877 -42.528817 -86.002106 -47.733975 -23.257652 -44.382793 -12.509961 -13.422351 18.462951 -13.762022 9.899012 -0.710396 -5.645080 7.518930 -0.654912 -25.108639 -7.496212 2.752599 0.042406 0.024046 0.026602 -16.257424 9.350376 -3.684585 -19.450286 6.029577 -0.300865 -20.527227 -5.176540 1.879920 -0.022030 0.008077 -0.021864
3.207221 89.147799 8.684281 34.701722 -9.605385 0.746409 -2.045346 1.881247 -2.856267 -1.154820 1.088881 -1.608875 -1.448334 1.355984 -2.014589 -1.154822 1.088882 -1.608877 1.099052 21.632084 -0.509671 2.131382 4.393597 -1.228678 11.327697 -3.936874 -3.676785 1.014792 -42.566294 75.916857 63.917746 -24.094175 22.132403 11.695719 -12.536344 -19.669975 -0.031003 -5.046729 6.291346 5.636627 -42.352801 -85.982923 -47.871510 -23.279296 -44.440711 -12.523973 -13.401372 18.456342 -13.751406 9.955350 -0.700499 -5.656481 7.477723 -0.655989 -25.105759 -7.502155 2.763525 0.042943 0.022165 0.027500 -16.274944 9.388819 -3.685015 -19.437134 6.006812 -0.292980 -20.561949 -5.180506 1.901375 -0.025200 0.012042 -0.021820
3.238365 89.146575 8.721161 34.695789 -9.603850 0.734181 -2.047570 1.807897 -2.862070 -1.157019 1.045594 -1.610842 -1.450893 1.301861 -2.016911 -1.157021 1.045594 -1.610844 1.123371 21.728203 -0.499473 2.171180 4.572329 -1.215233 11.299371 -3.899577 -3.591906 0.950667 -42.431214 75.949911 64.068950 -24.113883 22.235536 11.711947 -12.526565 -19.675252 0.016591 -5.004565 6.257103 5.666081 -42.181517 -85.948630 -47.993854 -23.319543 -44.503010 -12.530334 -13.385000 18.444467 -13.743889 10.012011 -0.684680 -5.670083 7.424917 -0.654901 -25.148120 -7.501739 2.773187 0.038984 0.020983 0.024682 -16.287453 9.426229 -3.685335 -19.426536 5.984717 -0.284908 -20.592011 -5.183735 1.922126 -0.028384 0.014770 -0.021560
3.268404 89.145584 8.757128 34.695262 -9.592394 0.714899 -2.053729 1.729804 -2.861023 -1.159585 1.001594 -1.612495 -1.453906 1.246846 -2.018837 -1.159586 1.001594 -1.612496 1.148074 21.825402 -0.490185 2.211908 4.753096 -1.203474 11.270516 -3.865395 -3.510212 0.876272 -42.294650 75.988792 64.211386 -24.140479 22.347291 11.731206 -12.515851 -19.688345 0.059864 -4.965643 6.221628 5.692857 -42.004934 -85.901871 -48.104406 -23.384583 -44.576793 -12.532939 -13.372450 18.425013 -13.743383 10.068335 -0.659801 -5.682414 7.357178 -0.648528 -25.192464 -7.497304 2.777349 0.033663 0.019532 0.020270 -16.300907 9.464917 -3.693828 -19.418650 5.961878 -0.275375 -20.528713 -5.177587 1.948362 -0.024454 0.007975 -0.018433
3.298623 89.144884 8.791702 34.699498 -9.572946 0.698411 -2.061818 1.648671 -2.862161 -1.163496 0.956844 -1.614770 -1.458599 1.190886 -2.021543 -1.163498 0.956844 -1.614771 1.173382 21.923166 -0.480578 2.253635 4.934916 -1.191248 11.242674 -3.834148 -3.429327 0.792738 -42.159537 76.033197 64.346428 -24.166271 22.460145 11.747451 -12.512752 -19.697778 0.099041 -4.927371 6.185740 5.715319 -41.826522 -85.846103 -48.201311 -23.470900 -44.654342 -12.540541 -13.365943 18.395465 -13.751137 10.127740 -0.648475 -5.689876 7.270972 -0.636546 -25.200561 -7.486080 2.778320 0.032803 0.019602 0.017574 -16.322069 9.498420 -3.708768 -19.409004 5.944334 -0.263293 -20.423995 -5.187370 1.974812 -0.018189 0.008959 -0.014284
3.329553 89.144689 8.826267 34.707721 -9.554647 0.684287 -2.071239 1.568511 -2.863627 -1.168658 0.912361 -1.617674 -1.464859 1.135252 -2.025038 -1.168660 0.912361 -1.617675 1.198545 22.021046 -0.470841 2.295061 5.116945 -1.178699 11.216827 -3.804150 -3.350951 0.702798 -42.025033 76.082516 64.477622 -24.187783 22.567455 11.759145 -12.513602 -19.700042 0.137057 -4.888270 6.151212 5.731563 -41.648470 -85.791090 -48.288434 -23.568271 -44.726940 -12.565138 -13.365361 18.363467 -13.765474 10.197010 -0.641779 -5.694382 7.167565 -0.622873 -25.200705 -7.469262 2.775995 0.032825 0.020638 0.014745 -16.353874 9.526672 -3.725229 -19.394641 5.929150 -0.248700 -20.348725 -5.195766 1.998735 -0.013730 0.008279 -0.011848
3.362018 89.145140 8.861549 34.712746 -9.544738 0.676419 -2.079761 1.492517 -2.867442 -1.174329 0.868768 -1.621474 -1.471760 1.080726 -2.029657 -1.174331 0.868768 -1.621476 1.223336 22.118271 -0.460754 2.335731 5.297740 -1.165384 11.196213 -3.773880 -3.274994 0.607627 -41.889348 76.137755 64.609300 -24.202558 22.671031 11.766781 -12.509217 -19.701432 0.178590 -4.848305 6.120929 5.748275 -41.470152 -85.752796 -48.374877 -23.663096 -44.787445 -12.606585 -13.366798 18.337740 -13.774701 10.280258 -0.642248 -5.700239 7.051217 -0.608444 -25.196569 -7.449264 2.772005 0.032977 0.023102 0.011381 -16.387464 9.552605 -3.739237 -19.386333 5.912263 -0.233443 -20.347228 -5.198245 2.017866 -0.015210 0.005468 -0.012747
